PathFileType	4	(X/Y/Z)	D:\TRACE\spot_10-12-23\spot_arm_motion_2_1-platform.trc
DataRate	CameraRate	NumFrames	NumMarkers	Units	OrigDataRate	OrigDataStartFrame	OrigNumFrames
100.00	100.00	      47	5	mm	100.00	1751	      7000
Frame#	Time	Left_Front			Right_Front			Left_Aft			Right_Aft			Post			
		X1	Y1	Z1	X2	Y2	Z2	X3	Y3	Z3	X4	Y4	Z4	X5	Y5	Z5	

1751	17.500	-829.86041	-30.08294	-649.47144	742.68213	-25.29077	-642.38776	-747.04816	29.60796	487.41666	670.18713	38.55404	573.03693	-46.57674	689.83459	-1006.24060	
1752	17.510	-830.03003	-31.29635	-649.72144	742.36969	-26.55606	-642.54242	-747.37573	30.32382	486.67578	670.12616	39.27225	572.83606	-47.32756	687.99835	-1007.77698	
1753	17.520	-830.25854	-32.41706	-649.83716	741.97528	-27.59338	-642.78729	-747.75116	31.02564	486.45844	669.83612	40.46307	572.47247	-47.12413	686.09839	-1009.17291	
1754	17.530	-830.42200	-33.49829	-650.05975	741.88928	-28.62813	-642.89203	-747.79889	31.75020	486.15344	669.67535	41.15022	572.14325	-47.56443	684.69116	-1010.57788	
1755	17.540	-830.83325	-34.53366	-650.12811	742.01392	-29.93111	-643.06293	-747.93268	32.36907	485.95093	669.60858	41.96146	571.84314	-47.65322	682.94025	-1011.91077	
1756	17.550	-830.81860	-35.66933	-650.29431	741.71173	-30.75604	-643.27649	-747.98370	33.28418	485.68582	669.35468	42.98437	571.54456	-47.80240	681.27893	-1013.08881	
1757	17.560	-830.82959	-36.77247	-650.57184	741.76093	-31.94921	-643.48682	-748.15869	33.97982	485.26196	669.19482	43.64547	571.23590	-47.91541	679.65295	-1014.73035	
1758	17.570	-830.97620	-37.56107	-650.68237	741.68774	-32.99212	-643.61206	-748.27667	34.63118	485.08380	669.04059	44.50127	570.92474	-48.04195	677.85303	-1015.85303	
1759	17.580	-830.92804	-38.82683	-650.74475	741.69818	-33.84187	-643.79761	-748.30426	35.24931	484.75851	669.22260	45.30561	570.56189	-47.54527	676.43842	-1017.15240	
1760	17.590	-830.95776	-39.76278	-651.04321	741.74194	-34.92320	-644.05835	-748.16095	35.90407	484.45319	669.21979	46.11202	570.39893	-47.85724	674.96179	-1018.29614	
1761	17.600	-831.05774	-40.56984	-651.07697	741.59125	-35.95589	-643.97778	-748.00696	36.42499	484.51736	669.05627	46.85606	569.97607	-48.06856	673.30371	-1019.64282	
1762	17.610	-830.95752	-41.79381	-651.15295	741.72675	-36.73158	-644.27136	-748.13373	37.17839	484.25488	669.14685	47.60102	569.65552	-47.66562	672.00616	-1020.51416	
1763	17.620	-830.70728	-42.70515	-651.37506	741.91010	-37.74751	-644.44153	-748.11005	37.76950	483.96603	669.21527	48.16584	569.44067	-47.41798	670.44897	-1021.79376	
1764	17.630	-830.61859	-43.30885	-651.59650	742.07086	-38.59999	-644.50745	-747.93109	38.42948	483.42743	669.48267	48.95484	569.29858	-47.45708	669.04858	-1022.91876	
1765	17.640	-830.66809	-44.17558	-651.48657	742.31763	-39.54354	-644.86053	-747.56207	38.94536	483.04050	669.91956	49.69096	568.95587	-47.04654	667.88953	-1023.95135	
1766	17.650	-830.07245	-45.39894	-651.76239	742.81537	-40.44625	-644.95880	-747.11096	39.46770	482.91272	670.17255	50.38903	568.78577	-46.91619	666.32343	-1025.10620	
1767	17.660	-829.55890	-46.17046	-652.03357	743.02094	-41.11261	-645.05438	-746.78827	40.03772	482.61874	670.49896	51.04081	568.53900	-46.35223	665.17358	-1025.97668	
1768	17.670	-829.28638	-46.71502	-652.17822	743.19220	-42.00478	-645.23254	-746.68201	40.51628	482.46283	670.70990	51.57245	568.26434	-46.14087	663.81580	-1026.90454	
1769	17.680	-828.87531	-47.48518	-652.54785	743.53693	-42.92706	-645.24127	-746.20807	41.21898	482.24579	671.11298	52.26367	567.97937	-45.58682	662.72095	-1027.99658	
1770	17.690	-828.24384	-48.80613	-652.56683	743.81586	-43.49757	-645.41699	-745.77991	41.63688	482.11627	671.61798	52.93052	567.68115	-45.41080	661.43359	-1028.68787	
1771	17.700	-828.08301	-49.36191	-652.52179	744.04407	-43.93545	-645.53143	-745.63354	41.94820	481.88403	672.05304	53.33920	567.56458	-45.16069	660.44043	-1029.92590	
1772	17.710	-827.95886	-49.62132	-652.52747	744.79749	-44.72294	-645.60059	-745.17657	42.48690	481.70334	672.42133	53.81757	567.42993	-45.05573	659.58594	-1030.85083	
1773	17.720	-827.40692	-50.28424	-652.73334	745.22729	-45.48840	-645.62347	-744.46283	42.83292	481.77014	672.85577	54.42307	567.25336	-44.18182	658.30493	-1031.66248	
1774	17.730	-826.89966	-51.03804	-652.78259	745.65924	-46.00737	-645.88995	-744.28046	43.24461	481.20694	673.21454	54.90639	567.10437	-43.84719	657.55695	-1032.43433	
1775	17.740	-826.18140	-51.80965	-652.88129	746.17371	-46.53920	-645.99786	-743.75171	43.59745	481.31094	673.72662	55.46547	566.91382	-43.09324	656.48407	-1033.44592	
1776	17.750	-825.96875	-51.95743	-652.98596	746.59003	-47.10548	-646.12531	-743.08563	44.04468	481.30576	674.19513	55.78536	566.76892	-42.81434	655.71075	-1034.11023	
1777	17.760	-825.56744	-52.27761	-652.98828	746.87329	-47.61692	-646.30719	-742.78448	44.40700	480.82605	674.67877	56.13731	566.63318	-41.98877	654.95563	-1034.93250	
1778	17.770	-825.18353	-52.57674	-653.08881	747.27802	-48.06200	-646.37970	-742.25861	44.65891	480.70041	675.01923	56.37526	566.48309	-41.66574	654.14606	-1035.59631	
1779	17.780	-824.30957	-53.46585	-653.28802	747.80939	-48.49473	-646.33972	-741.76434	44.97515	480.51517	675.60681	56.73916	566.33936	-41.19806	653.51666	-1036.25073	
1780	17.790	-823.56445	-54.08891	-653.39282	748.70807	-49.13314	-646.17584	-741.18085	45.10448	480.37567	675.41687	57.04187	566.44189	-40.60111	652.91602	-1036.97168	
1781	17.800	-823.19641	-54.26047	-653.49927	749.29028	-49.41845	-646.25323	-740.70581	45.28303	480.28604	676.16986	57.37710	566.28088	-39.99212	652.15228	-1037.42566	
1782	17.810	-822.72375	-54.37383	-653.46960	749.67126	-49.61786	-646.33044	-740.01782	45.61088	480.19455	676.85394	57.57287	566.10693	-39.34102	651.89740	-1038.01453	
1783	17.820	-822.17426	-54.73795	-653.43640	750.25610	-49.94360	-646.37946	-739.45380	45.69645	480.18024	677.62921	57.78925	565.80981	-38.61341	651.33661	-1038.50525	
1784	17.830	-821.47278	-55.05380	-653.34174	750.98450	-50.22401	-646.36194	-738.77960	45.73830	480.06030	678.51538	58.00895	565.65564	-38.23701	651.04333	-1038.87231	
1785	17.840	-820.94379	-55.32521	-653.30737	751.66217	-50.46641	-646.46515	-738.14795	45.99973	480.01010	679.16150	58.12434	565.67914	-37.33129	650.51337	-1039.50903	
1786	17.850	-820.26868	-55.69906	-653.27740	752.13855	-50.62342	-646.54572	-737.46936	46.10808	480.04425	680.09027	58.36255	565.65997	-36.95448	650.25031	-1039.86230	
1787	17.860	-819.40356	-55.95929	-653.42126	752.65588	-50.71881	-646.64081	-736.84259	46.22255	479.97375	680.46362	58.36024	565.59851	-36.38871	649.97382	-1040.16956	
1788	17.870	-818.58667	-56.08937	-653.55377	753.54089	-50.76392	-646.73212	-736.18719	46.33867	479.93839	681.02606	58.48904	565.47406	-35.62974	649.79871	-1040.49536	
1789	17.880	-817.94666	-56.07307	-653.52258	754.35858	-50.61224	-646.56311	-735.39417	46.46054	479.91415	681.85370	58.65129	565.32739	-35.04978	650.08075	-1040.20776	
1790	17.890	-817.38672	-55.91778	-653.52325	755.05048	-50.58912	-646.49115	-734.80017	46.49643	479.87939	682.72498	58.73027	565.40735	-34.03389	649.59003	-1040.71594	
1791	17.900	-816.68896	-55.88553	-653.53497	755.81860	-50.68283	-646.57245	-734.16016	46.44416	479.79736	683.14343	58.71642	565.50488	-33.35548	649.45508	-1040.59814	
1792	17.910	-816.01294	-55.92006	-653.54724	756.57928	-50.76443	-646.75287	-733.28235	46.59363	479.84561	684.04340	58.68472	565.47302	-32.79568	649.53851	-1040.54321	
1793	17.920	-815.33203	-55.66644	-653.46838	757.30792	-50.82355	-646.64209	-732.50525	46.59331	479.84082	684.93445	58.66452	565.52399	-31.83257	649.69641	-1040.54248	
1794	17.930	-814.68274	-55.37598	-653.36719	758.01196	-50.71528	-646.48975	-731.90076	46.50573	479.89639	685.71643	58.56255	565.50861	-31.03559	649.86127	-1040.64795	
1795	17.940	-813.54724	-55.11181	-653.53436	758.82330	-50.51774	-646.64685	-730.90759	46.28442	480.07794	686.37677	58.50222	565.59570	-30.27345	650.06287	-1040.22205	
1796	17.950	-812.65436	-55.39068	-653.70557	759.54596	-50.22228	-646.70813	-730.05469	46.06361	480.06287	687.30786	58.27108	565.60046	-25.81367	648.68750	-1041.79602	
1797	17.960	-811.83459	-55.08576	-653.50555	760.55865	-49.93401	-646.43341	-729.25195	45.97262	480.13281	688.11761	58.16266	565.63623	-28.69978	650.72412	-1039.85730	
